<?xml version="1.0" encoding="UTF-8" standalone="no"?><svg width="333.15204" height="130.64868" style="overflow:visible" viewBox="0 0 333.15204 130.64868" data-svgdocument="" id="_EhxCjg0eFd-gWAOw8alkU" class="fl-svgdocument" x="0" y="0" overflow="hidden" data-bbox="68.54679126703647 214.1230958519388 333.1520441730256 130.64869241557628" version="1.1" sodipodi:docname="bd69d58451781ce36769cab019551744.svg" xmlns:inkscape="http://www.inkscape.org/namespaces/inkscape" xmlns:sodipodi="http://sodipodi.sourceforge.net/DTD/sodipodi-0.dtd" xmlns="http://www.w3.org/2000/svg" xmlns:svg="http://www.w3.org/2000/svg"><sodipodi:namedview id="namedview12" pagecolor="#ffffff" bordercolor="#666666" borderopacity="1.0" inkscape:pageshadow="2" inkscape:pageopacity="0.0" inkscape:pagecheckerboard="0" /><defs id="_NVSUhYTtPwk97Q54rUMxx" transform="matrix(1.3043043613433838, 0, 0, 1.3043043613433838, -31.625648498535156, 131.65293884277344)" data-uid="o_f10lj28f0_5"><linearGradient id="o_f10lj28f0_3" x1="11.781935" y1="46.681636" x2="95.808879" y2="46.681636" data-uid="o_f10lj28f0_6" gradientTransform="matrix(0.91709165,0,0,1.0521087,-7.0750611,-3.3117533)" gradientUnits="userSpaceOnUse"><stop id="_3m4cezOni4tb2P8V2Ksai" offset="0%" stop-color="rgb(255,232,0)" stop-opacity="1" data-uid="o_f10lj28f0_7" /><stop id="_j0VHyOT3q9pLPviRbj7a9" offset="100%" stop-color="rgb(76,167,209)" stop-opacity="1" data-uid="o_f10lj28f0_8" /></linearGradient></defs><path id="_pWCOG6xWHbr3Mm2K8-BV5" d="m 76.39868,75.124686 c 0,5.783978 -4.704696,10.488675 -10.488674,10.488675 H 23.823555 L 19.867657,81.74969 h 0.455648 40.404397 c 6.50972,0 11.806209,-5.297587 11.806209,-11.807306 V 21.200187 h 1.323025 c 1.400978,0 2.541744,1.140765 2.541744,2.542842 z M 10.936968,73.697357 H 57.54915 c 3.823047,0 6.933527,-3.11048 6.933527,-6.933527 V 14.04268 h 1.118806 c 1.400979,0 2.540646,1.140765 2.540646,2.541744 v 53.35796 c 0,4.088748 -3.326776,7.415524 -7.414427,7.415524 H 15.5692 Z M 8.1218351,5.9914446 H 57.54915 c 1.400978,0 2.541744,1.1396681 2.541744,2.5417436 V 66.76383 c 0,1.402078 -1.140766,2.541745 -2.541744,2.541745 H 8.1218351 Z M 73.856936,16.808405 h -1.323025 v -0.223981 c 0,-3.823047 -3.11048,-6.9335272 -6.932428,-6.9335272 H 64.482677 V 8.5331882 c 0,-3.8230461 -3.11048,-6.9335259 -6.933527,-6.9335259 H 3.7300532 V 73.697357 L 22.299607,90.005143 h 43.610399 c 8.204947,0 14.880457,-6.67551 14.880457,-14.880457 V 23.743029 c 0,-3.824145 -3.11048,-6.934624 -6.933527,-6.934624 z" fill="url(#o_f10lj28f0_3)" fill-rule="evenodd" data-uid="o_f10lj28f0_9" style="fill:url(#o_f10lj28f0_3);stroke-width:0.982283" /><path text="Portal" text-anchor="start" font-size="100px" letter-spacing="0" side="left" offset="0" dx="0" dy="0" space="preserve" href="" font-family="Bungee" font-scale="contain" x="0" y="0" fill="#001943" data-fl-textpath="" id="_z5CNUfQuDwRMN9gngi9lT" data-uid="o_f10lj28f0_10" d="m 110.16635,41.622647 v 0 h -8.77757 q -1.07596,0 -1.55731,-0.481351 -0.481351,-0.48135 -0.481351,-1.55731 v 0 -36.6958865 q 0,-1.0759597 0.481351,-1.55731 0.48135,-0.48135041 1.55731,-0.48135041 v 0 h 17.32861 q 7.70161,0 10.53308,3.05799061 2.83147,3.0579905 2.83147,7.9847533 v 0 7.24857 q 0,4.926763 -2.83147,7.984753 -2.83147,3.057991 -10.53308,3.057991 v 0 h -6.51238 v 9.400489 q 0,1.07596 -0.48135,1.55731 -0.48136,0.481351 -1.55731,0.481351 z m 7.02205,-30.1835 h -5.09665 v 8.551048 h 5.09665 q 1.64225,0 2.15192,-0.849442 0.50966,-0.849442 0.50966,-1.925401 v 0 -3.001362 q 0,-1.075959 -0.50966,-1.925401 -0.50967,-0.849442 -2.15192,-0.849442 z m 55.32698,0.169889 V 30.91968 q 0,2.604955 -0.7645,4.728559 -0.7645,2.123605 -2.71822,3.624285 -1.95371,1.500681 -5.37979,2.350123 -3.42609,0.849442 -8.69263,0.849442 v 0 q -5.26654,0 -8.72093,-0.849442 -3.4544,-0.849442 -5.40811,-2.350123 -1.95372,-1.50068 -2.71822,-3.624285 -0.7645,-2.123604 -0.7645,-4.728559 v 0 -19.310644 q 0,-2.6049554 0.7645,-4.7285599 0.7645,-2.1236046 2.71822,-3.6525999 1.95371,-1.5289953 5.40811,-2.37843711 Q 149.6937,-2.7320183e-6 154.96024,-2.7320183e-6 v 0 q 5.26654,0 8.69263,0.8494418220183 3.42608,0.84944181 5.37979,2.37843711 1.95372,1.5289953 2.71822,3.6525999 0.7645,2.1236045 0.7645,4.7285599 z m -22.31201,2.03866 v 15.233323 q 0,1.132589 0.84944,1.897087 0.84944,0.764498 3.90743,0.764498 v 0 q 3.05799,0 3.90744,-0.764498 0.84944,-0.764498 0.84944,-1.897087 v 0 -15.233323 q 0,-1.07596 -0.84944,-1.840457 -0.84945,-0.764498 -3.90744,-0.764498 v 0 q -3.05799,0 -3.90743,0.764498 -0.84944,0.764497 -0.84944,1.840457 z m 46.54941,-2.604955 h -4.24721 v 7.24857 h 4.24721 q 1.47237,0 1.98203,-0.764497 0.50967,-0.764498 0.50967,-1.897087 v 0 -1.925402 q 0,-1.132589 -0.50967,-1.897086 -0.50966,-0.764498 -1.98203,-0.764498 z m -6.28587,30.579906 v 0 h -8.72093 q -1.07596,0 -1.55731,-0.481351 -0.48135,-0.48135 -0.48135,-1.55731 v 0 -36.6958865 q 0,-1.0759597 0.48135,-1.55731 0.48135,-0.48135041 1.55731,-0.48135041 v 0 h 18.8576 q 6.3425,0 8.74926,2.63326971 2.40675,2.6332696 2.40675,6.8238492 v 0 2.604955 q 0,2.378437 -0.70787,4.049006 -0.70787,1.670569 -2.46338,2.406752 v 0 q 3.05799,0.339777 4.95508,2.491696 1.89708,2.151919 1.89708,5.719575 v 0 12.005444 q 0,1.07596 -0.48135,1.55731 -0.48135,0.481351 -1.55731,0.481351 v 0 h -8.77756 q -1.07596,0 -1.55731,-0.481351 -0.48135,-0.48135 -0.48135,-1.55731 v 0 -8.664306 q 0,-1.245848 -0.48135,-1.840458 -0.48136,-0.594609 -1.67057,-0.594609 v 0 h -7.92813 v 11.099373 q 0,1.07596 -0.48135,1.55731 -0.48135,0.481351 -1.55731,0.481351 z m 48.87122,0 v 0 h -9.17397 q -1.07596,0 -1.55731,-0.481351 -0.48135,-0.48135 -0.48135,-1.55731 v 0 -27.805062 h -8.32453 q -1.07596,0 -1.55731,-0.48135 -0.48135,-0.481351 -0.48135,-1.5573105 v 0 -6.852164 q 0,-1.0759597 0.48135,-1.55731 0.48135,-0.48135041 1.55731,-0.48135041 v 0 h 29.90035 q 1.07596,0 1.55731,0.48135041 0.48135,0.4813503 0.48135,1.55731 v 0 6.852164 q 0,1.0759595 -0.48135,1.5573105 -0.48135,0.48135 -1.55731,0.48135 v 0 h -8.32453 v 27.805062 q 0,1.07596 -0.48135,1.55731 -0.48135,0.481351 -1.55731,0.481351 z m 30.41002,-28.881022 v 0 l -2.66159,8.607677 h 8.89083 l -2.66158,-8.607677 q -0.22652,-0.509665 -0.48136,-0.736183 -0.25483,-0.226518 -0.5946,-0.226518 v 0 h -1.41574 q -0.33978,0 -0.59461,0.226518 -0.25483,0.226518 -0.48135,0.736183 z m -3.22788,18.914238 v 7.928123 q 0,1.07596 -0.48135,1.55731 -0.48135,0.481351 -1.55731,0.481351 v 0 h -8.32453 q -1.07596,0 -1.55731,-0.481351 -0.48135,-0.48135 -0.48135,-1.55731 v 0 -14.950176 q 0,-1.698883 0.53798,-3.907432 0.53798,-2.208549 1.67057,-5.153281 v 0 l 4.92676,-12.8548859 q 0.33978,-0.9627007 1.04765,-1.4157364 0.70786,-0.45303561 1.84045,-0.45303561 v 0 h 15.23333 q 1.07596,0 1.78382,0.45303561 0.70787,0.4530357 1.04765,1.4157364 v 0 l 4.92676,12.8548859 q 1.13259,2.944732 1.67057,5.153281 0.53798,2.208549 0.53798,3.907432 v 0 14.950176 q 0,1.07596 -0.48135,1.55731 -0.48135,0.481351 -1.55731,0.481351 v 0 h -8.55105 q -1.13259,0 -1.67057,-0.481351 -0.53798,-0.48135 -0.53798,-1.55731 v 0 -7.928123 z m 60.65015,9.966784 v 0 h -28.8244 q -1.07596,0 -1.55731,-0.481351 -0.48135,-0.48135 -0.48135,-1.55731 v 0 -36.6958865 q 0,-1.0759597 0.48135,-1.55731 0.48135,-0.48135041 1.55731,-0.48135041 v 0 h 8.77757 q 1.07596,0 1.55731,0.48135041 0.48135,0.4813503 0.48135,1.55731 v 0 28.0315805 h 7.75824 v -9.173972 q 0,-1.07596 0.48135,-1.55731 0.48135,-0.48135 1.55731,-0.48135 v 0 h 8.21127 q 1.07596,0 1.55731,0.48135 0.48135,0.48135 0.48135,1.55731 v 0 17.838278 q 0,1.07596 -0.48135,1.55731 -0.48135,0.481351 -1.55731,0.481351 z" style="stroke-width:0.566295" /><path text="Ujian" text-anchor="start" font-size="100px" letter-spacing="0" side="left" offset="0" dx="0" dy="0" space="preserve" href="" font-family="Bungee" font-scale="contain" x="0" y="0" fill="rgba(0, 25, 67, 1)" data-fl-textpath="" id="_9B6HNAF_VNN4vAPqAQQyX" data-uid="o_f10lj28f0_11" d="m 141.07657,56.593481 -0.0746,25.437866 q -0.007,2.363923 -0.92962,4.288344 -0.92268,1.924421 -3.2702,3.279371 -2.34752,1.35495 -6.42547,2.113837 -4.07795,0.758888 -10.39527,0.740354 v 0 q -6.31732,-0.01853 -10.39075,-0.801334 -4.07343,-0.782802 -6.41295,-2.151502 -2.33953,-1.3687 -3.250905,-3.298502 -0.911376,-1.929801 -0.904441,-4.293724 v 0 l 0.07463,-25.437866 q 0.0029,-0.976403 0.581536,-1.411521 0.57867,-0.435118 1.8693,-0.431332 v 0 l 10.66472,0.03129 q 1.29064,0.0038 1.86675,0.442292 0.57611,0.438506 0.57324,1.414909 v 0 l -0.0688,23.433671 q -0.003,1.027792 1.01388,1.724542 1.01688,0.696749 4.54915,0.707112 v 0 q 3.60019,0.01056 4.62115,-0.680209 1.02096,-0.690771 1.02397,-1.718564 v 0 l 0.0687,-23.43367 q 0.003,-0.976403 0.58153,-1.411521 0.57867,-0.435118 1.86931,-0.431332 v 0 l 10.32508,0.03029 q 1.29064,0.0038 1.86674,0.442292 0.57611,0.438506 0.57325,1.414909 z m 46.73457,0.137106 -0.0746,25.437866 q -0.007,2.363923 -0.89566,4.288444 -0.88872,1.92452 -3.10038,3.279868 -2.21166,1.355349 -6.08583,2.114834 -3.87416,0.759486 -9.85184,0.741949 v 0 q -5.90975,-0.01734 -9.74543,-0.799442 -3.83568,-0.782103 -6.03935,-2.150405 -2.20367,-1.368302 -3.04712,-3.297904 -0.84345,-1.929602 -0.83651,-4.293525 v 0 l 0.0244,-8.32512 q 0.003,-0.976403 0.58154,-1.411521 0.57867,-0.435118 1.8693,-0.431332 v 0 l 9.84959,0.0289 q 1.29063,0.0038 1.86674,0.442292 0.57611,0.438506 0.57324,1.414909 v 0 l -0.0184,6.269535 q -0.003,1.027792 0.84405,1.724043 0.84707,0.696251 3.97176,0.705418 v 0 q 2.92091,0.0086 3.70412,-0.682899 0.78321,-0.691468 0.78623,-1.719261 v 0 l 0.0686,-23.382281 q 0.003,-0.976403 0.58153,-1.411521 0.57867,-0.435118 1.86931,-0.431331 v 0 l 10.66472,0.03129 q 1.29063,0.0038 1.86674,0.442292 0.57611,0.438506 0.57324,1.414909 z m 39.22729,35.26589 -28.9374,-0.08489 q -1.29063,-0.0038 -1.86674,-0.442292 -0.57611,-0.438506 -0.57324,-1.414909 v 0 l 0.0179,-6.115365 q 0.003,-0.976403 0.58153,-1.411521 0.57867,-0.435118 1.86931,-0.431332 v 0 l 6.72489,0.01973 0.0507,-17.266915 -6.72489,-0.01973 q -1.29063,-0.0038 -1.86674,-0.442292 -0.57611,-0.438506 -0.57324,-1.414909 v 0 l 0.0182,-6.218145 q 0.003,-0.976403 0.58154,-1.411521 0.57867,-0.435118 1.8693,-0.431332 v 0 l 28.9374,0.08489 q 1.29063,0.0038 1.86674,0.442293 0.57611,0.438505 0.57325,1.414908 v 0 l -0.0182,6.218145 q -0.003,0.976403 -0.58153,1.411521 -0.57867,0.435118 -1.86931,0.431332 v 0 l -6.58903,-0.01933 -0.0507,17.266916 6.58904,0.01933 q 1.29063,0.0038 1.86674,0.442292 0.57611,0.438506 0.57324,1.414909 v 0 l -0.0179,6.115366 q -0.003,0.976403 -0.58153,1.411521 -0.57867,0.435118 -1.86931,0.431331 z m 28.60672,-26.125012 v 0 l -3.21554,7.801857 10.66472,0.03129 -3.16971,-7.82059 q -0.27035,-0.463304 -0.57543,-0.669759 -0.30507,-0.206456 -0.71264,-0.207651 v 0 l -1.6982,-0.005 q -0.40757,-0.0012 -0.71385,0.203466 -0.30628,0.204661 -0.57935,0.666371 z m -3.92226,17.152777 -0.0211,7.194548 q -0.003,0.976403 -0.58153,1.411521 -0.57867,0.435118 -1.86931,0.431332 v 0 l -9.98544,-0.0293 q -1.29063,-0.0038 -1.86674,-0.442292 -0.57611,-0.438506 -0.57325,-1.414909 v 0 l 0.0398,-13.566862 q 0.005,-1.541689 0.65572,-3.543991 0.65119,-2.002302 2.0176,-4.670577 v 0 l 5.94397,-11.648109 q 0.41013,-0.872428 1.26044,-1.281054 0.85031,-0.408626 2.20887,-0.40464 v 0 l 18.27268,0.05361 q 1.29063,0.0038 2.13853,0.417394 0.84789,0.413608 1.2529,1.288428 v 0 l 5.87553,11.682783 q 1.35072,2.676246 1.99016,4.682335 0.63944,2.006089 0.63491,3.547778 v 0 l -0.0398,13.566862 q -0.003,0.976403 -0.58153,1.411521 -0.57867,0.435118 -1.86931,0.431331 v 0 l -10.25715,-0.03009 q -1.35857,-0.004 -2.0026,-0.442691 -0.64404,-0.438705 -0.64117,-1.415108 v 0 l 0.0211,-7.194548 z m 48.33832,9.186463 v 0 l -10.18923,-0.02989 q -1.29063,-0.0038 -1.86674,-0.442292 -0.57611,-0.438506 -0.57324,-1.414909 v 0 l 0.0977,-33.300479 q 0.003,-0.976403 0.58154,-1.411521 0.57867,-0.435118 1.8693,-0.431332 v 0 l 7.06453,0.02073 q 1.29064,0.0038 2.20676,0.314814 0.91613,0.311028 1.79693,1.084463 v 0 l 13.1446,11.447159 0.0321,-10.945991 q 0.003,-0.976403 0.58154,-1.411521 0.57867,-0.435118 1.8693,-0.431332 v 0 l 10.18923,0.02989 q 1.29063,0.0038 1.86674,0.442293 0.57611,0.438505 0.57324,1.414908 v 0 l -0.0977,33.30048 q -0.003,0.976403 -0.58154,1.411521 -0.57867,0.435118 -1.8693,0.431331 v 0 l -10.18923,-0.02989 q -1.29063,-0.0038 -1.86674,-0.442292 -0.57611,-0.438506 -0.57324,-1.414909 v 0 l 0.0185,-6.320924 -11.58451,-10.671731 -0.0498,16.958578 q -0.003,0.976403 -0.58154,1.411521 -0.57867,0.435118 -1.8693,0.431331 z" style="stroke-width:0.590833" /><path text="Politeknik Keuangan Negara STAN" fill="#ff9400" space="preserve" text-anchor="middle" offset="0.5" font-scale="contain" font-size="48px" font-family="'Roboto Condensed'" font-weight="700" font-style="normal" data-uid="o_f10lj28f0_12" data-fl-textpath="" d="m 5.8411508,119.19322 h -2.338492 v 6.25412 H 4.3402487e-6 V 107.65959 H 5.9123223 q 2.5723413,0 4.1025287,1.64171 1.530187,1.63649 1.530187,4.24758 0,2.61631 -1.509852,4.12772 -1.5149367,1.51662 -4.1940352,1.51662 z m -2.338492,-8.53686 v 5.54531 h 2.4096635 q 1.0014847,0 1.5454383,-0.67232 0.5490372,-0.67231 0.5490372,-1.95441 v 0 q 0,-1.33421 -0.5592046,-2.12118 -0.5592046,-0.78698 -1.4996851,-0.7974 v 0 z m 9.6640722,8.5994 v -0.8443 q 0,-3.00719 1.382761,-4.71665 1.38276,-1.70946 3.822926,-1.70946 v 0 q 2.465584,0 3.848345,1.70946 1.38276,1.70946 1.38276,4.74271 v 0 0.83909 q 0,3.01761 -1.367509,4.71665 -1.372594,1.69903 -3.838178,1.69903 v 0 q -2.480835,0 -3.853428,-1.70425 -1.377677,-1.70424 -1.377677,-4.73228 z m 3.38573,-0.8443 v 0.86515 q 0,3.544 1.845375,3.544 v 0 q 1.703033,0 1.835208,-2.95507 v 0 l 0.01017,-1.45408 q 0,-1.80848 -0.488033,-2.67885 -0.488034,-0.87557 -1.382761,-0.87557 v 0 q -0.854058,0 -1.337007,0.87557 -0.48295,0.87037 -0.48295,2.67885 z m 12.69029,-11.72647 v 18.76235 h -3.38573 v -18.76235 z m 6.148074,5.54532 v 13.21703 h -3.38573 v -13.21703 z m -3.543324,-3.41892 v 0 q 0,-0.80782 0.503284,-1.31857 0.4982,-0.51597 1.331924,-0.51597 0.833723,0 1.337007,0.51597 0.498201,0.51075 0.498201,1.31857 v 0 q 0,0.79219 -0.493117,1.31858 -0.493117,0.52639 -1.342091,0.52639 -0.843891,0 -1.337008,-0.52639 -0.4982,-0.52639 -0.4982,-1.31858 z m 6.697111,0.17199 h 3.375562 v 3.24693 h 1.723367 v 2.60067 h -1.723367 v 6.56161 q 0,0.78176 0.208431,1.07362 0.208431,0.29186 0.803221,0.29186 v 0 q 0.488033,0 0.798138,-0.0834 v 0 l -0.02542,2.68927 q -0.859142,0.32834 -1.860626,0.32834 v 0 q -3.263722,0 -3.299307,-3.83586 v 0 -7.02545 h -1.489518 v -2.60067 h 1.489518 z M 50.7008,125.69229 v 0 q -2.59776,0 -4.051692,-1.58959 -1.453932,-1.58959 -1.453932,-4.54465 v 0 -1.04757 q 0,-3.12706 1.331924,-4.82609 1.337007,-1.69904 3.82801,-1.69904 v 0 q 2.429998,0 3.655165,1.5948 1.23025,1.5948 1.250584,4.72186 v 0 1.69904 h -6.705371 q 0.07117,1.4645 0.630376,2.14203 0.559204,0.67753 1.72845,0.67753 v 0 q 1.692865,0 2.821442,-1.18307 v 0 l 1.321756,2.08992 q -0.615125,0.87557 -1.794538,1.42281 -1.179414,0.54202 -2.562174,0.54202 z m -2.124978,-8.1095 v 0 h 3.375563 v -0.31792 q -0.02542,-1.18828 -0.381276,-1.79806 -0.360941,-0.60977 -1.240418,-0.60977 -0.879476,0 -1.281087,0.64625 -0.396526,0.64626 -0.472782,2.0795 z m 15.230065,7.86455 -2.358826,-5.09189 -0.904895,1.03714 v 4.05475 h -3.375563 v -18.76235 h 3.375563 v 10.13688 l 0.416861,-0.63583 2.333409,-3.95573 h 4.016106 l -3.741587,5.44629 4.097444,7.77074 z m 4.955951,-13.21703 h 3.167132 l 0.09659,1.30815 q 1.143828,-1.55311 2.989203,-1.55311 v 0 q 3.324725,0 3.421315,4.77919 v 0 8.6828 h -3.380646 v -8.42742 q 0,-1.12574 -0.330439,-1.63128 -0.325355,-0.50555 -1.148911,-0.50555 v 0 q -0.920146,0 -1.428514,0.96418 v 0 9.60007 h -3.38573 z m 15.634853,0 v 13.21703 h -3.38573 v -13.21703 z m -3.543324,-3.41892 v 0 q 0,-0.80782 0.503285,-1.31857 0.4982,-0.51597 1.331923,-0.51597 0.833724,0 1.337008,0.51597 0.4982,0.51075 0.4982,1.31857 v 0 q 0,0.79219 -0.493117,1.31858 -0.493116,0.52639 -1.342091,0.52639 -0.84389,0 -1.337007,-0.52639 -0.498201,-0.52639 -0.498201,-1.31858 z m 12.787358,16.63595 -2.358827,-5.09189 -0.904895,1.03714 v 4.05475 h -3.375562 v -18.76235 h 3.375562 v 10.13688 l 0.416862,-0.63583 2.333408,-3.95573 h 4.016106 l -3.741587,5.44629 4.097445,7.77074 z m 18.886505,0 -3.17222,-6.86389 -1.38276,1.78242 v 5.08147 h -3.50265 v -17.78775 h 3.50265 v 7.76032 l 1.10824,-1.91793 3.22814,-5.84239 h 4.29062 l -4.96675,7.81765 5.05317,9.9701 z m 10.17514,0.24495 v 0 q -2.59776,0 -4.0517,-1.58959 -1.45393,-1.58959 -1.45393,-4.54465 v 0 -1.04757 q 0,-3.12706 1.33193,-4.82609 1.337,-1.69904 3.828,-1.69904 v 0 q 2.43,0 3.65517,1.5948 1.23025,1.5948 1.25058,4.72186 v 0 1.69904 h -6.70537 q 0.0712,1.4645 0.63038,2.14203 0.5592,0.67753 1.72845,0.67753 v 0 q 1.69286,0 2.82144,-1.18307 v 0 l 1.32176,2.08992 q -0.61513,0.87557 -1.79454,1.42281 -1.17941,0.54202 -2.56217,0.54202 z m -2.12498,-8.1095 v 0 h 3.37556 v -0.31792 q -0.0254,-1.18828 -0.38128,-1.79806 -0.36094,-0.60977 -1.24041,-0.60977 -0.87948,0 -1.28109,0.64625 -0.39653,0.64626 -0.47278,2.0795 z m 15.02672,7.86455 -0.0966,-1.20913 q -1.04724,1.45408 -2.81128,1.45408 v 0 q -1.7742,0 -2.69435,-1.25082 -0.91506,-1.25604 -0.91506,-3.64824 v 0 -8.56292 h 3.37048 v 8.64631 q 0.0254,1.93357 1.25058,1.93357 v 0 q 1.15908,0 1.67253,-1.02672 v 0 -9.55316 h 3.39082 v 13.21703 z m 15.09598,0 h -3.3959 q -0.14234,-0.3075 -0.28468,-1.02672 v 0 q -0.9049,1.27167 -2.45542,1.27167 v 0 q -1.62169,0 -2.68418,-1.09968 -1.06758,-1.09968 -1.06758,-2.84562 v 0 q 0,-2.0795 1.29126,-3.21566 1.29125,-1.13617 3.72125,-1.15701 v 0 h 1.0269 v -1.0632 q 0,-0.89121 -0.29993,-1.26125 -0.29486,-0.36482 -0.86931,-0.36482 v 0 q -1.26075,0 -1.26075,1.51662 v 0 h -3.37048 q 0,-1.83454 1.337,-3.02282 1.3421,-1.1935 3.39082,-1.1935 v 0 q 2.11989,0 3.28405,1.13096 1.15908,1.13095 1.15908,3.23129 v 0 6.21763 q 0.0254,1.70946 0.47787,2.67364 v 0 z m -5.38362,-2.46517 v 0 q 0.55921,0 0.95065,-0.23453 0.39653,-0.23453 0.58462,-0.54723 v 0 -2.75181 h -0.8083 q -0.85914,0 -1.35226,0.56287 -0.4982,0.56287 -0.4982,1.50099 v 0 q 0,1.46971 1.12349,1.46971 z m 7.26649,-10.75186 h 3.16713 l 0.0966,1.30815 q 1.14383,-1.55311 2.9892,-1.55311 v 0 q 3.32473,0 3.42132,4.77919 v 0 8.6828 h -3.38065 v -8.42742 q 0,-1.12574 -0.33044,-1.63128 -0.32535,-0.50555 -1.14891,-0.50555 v 0 q -0.92015,0 -1.42851,0.96418 v 0 9.60007 h -3.38573 z m 11.68991,7.18181 v -0.9746 q 0,-3.25214 1.14383,-4.85215 1.14383,-1.60002 3.20272,-1.60002 v 0 q 1.75387,0 2.70452,1.4176 v 0 l 0.13217,-1.17264 h 3.04004 v 13.21703 q 0,2.5277 -1.38276,3.86712 -1.38276,1.33422 -3.97035,1.33422 v 0 q -1.05741,0 -2.22665,-0.43258 -1.16925,-0.43258 -1.73862,-1.10489 v 0 l 1.13366,-2.3922 q 0.47278,0.51075 1.23533,0.83388 0.76255,0.32313 1.44377,0.32313 v 0 q 1.13366,0 1.62677,-0.55245 0.49312,-0.55766 0.50329,-1.79285 v 0 -1.13616 q -0.96082,1.29773 -2.51134,1.29773 v 0 q -2.06397,0 -3.18746,-1.64171 -1.12858,-1.64691 -1.14892,-4.63846 z m 3.37048,-0.9746 v 0.86515 q 0,1.83454 0.46262,2.66842 0.4677,0.8391 1.47935,0.8391 v 0 q 1.03707,0 1.53527,-0.77135 v 0 -6.31665 q -0.52362,-0.8391 -1.50985,-0.8391 v 0 q -1.00149,0 -1.48444,0.8391 -0.48295,0.8443 -0.48295,2.71533 z m 18.82518,7.00982 h -3.3959 q -0.14234,-0.3075 -0.28468,-1.02672 v 0 q -0.9049,1.27167 -2.45542,1.27167 v 0 q -1.62169,0 -2.68418,-1.09968 -1.06757,-1.09968 -1.06757,-2.84562 v 0 q 0,-2.0795 1.29125,-3.21566 1.29126,-1.13617 3.72125,-1.15701 v 0 h 1.02691 v -1.0632 q 0,-0.89121 -0.29994,-1.26125 -0.29485,-0.36482 -0.86931,-0.36482 v 0 q -1.26075,0 -1.26075,1.51662 v 0 h -3.37048 q 0,-1.83454 1.33701,-3.02282 1.34209,-1.1935 3.39081,-1.1935 v 0 q 2.1199,0 3.28406,1.13096 1.15908,1.13095 1.15908,3.23129 v 0 6.21763 q 0.0254,1.70946 0.47786,2.67364 v 0 z m -5.38361,-2.46517 v 0 q 0.5592,0 0.95064,-0.23453 0.39653,-0.23453 0.58463,-0.54723 v 0 -2.75181 h -0.80831 q -0.85914,0 -1.35226,0.56287 -0.4982,0.56287 -0.4982,1.50099 v 0 q 0,1.46971 1.1235,1.46971 z m 7.26648,-10.75186 h 3.16713 l 0.0966,1.30815 q 1.14383,-1.55311 2.9892,-1.55311 v 0 q 3.32473,0 3.42132,4.77919 v 0 8.6828 H 194.645 v -8.42742 q 0,-1.12574 -0.33044,-1.63128 -0.32535,-0.50555 -1.14891,-0.50555 v 0 q -0.92014,0 -1.42851,0.96418 v 0 9.60007 h -3.38573 z m 30.01276,-4.57072 v 17.78775 h -3.50265 l -5.12435,-11.66393 v 11.66393 h -3.50265 v -17.78775 h 3.50265 l 5.13452,11.67956 v -11.67956 z m 7.85461,18.0327 v 0 q -2.59776,0 -4.05169,-1.58959 -1.45394,-1.58959 -1.45394,-4.54465 v 0 -1.04757 q 0,-3.12706 1.33193,-4.82609 1.337,-1.69904 3.82801,-1.69904 v 0 q 2.43,0 3.65516,1.5948 1.23025,1.5948 1.25059,4.72186 v 0 1.69904 h -6.70538 q 0.0712,1.4645 0.63038,2.14203 0.55921,0.67753 1.72845,0.67753 v 0 q 1.69287,0 2.82144,-1.18307 v 0 l 1.32176,2.08992 q -0.61513,0.87557 -1.79454,1.42281 -1.17941,0.54202 -2.56217,0.54202 z m -2.12498,-8.1095 v 0 h 3.37556 v -0.31792 q -0.0254,-1.18828 -0.38127,-1.79806 -0.36095,-0.60977 -1.24042,-0.60977 -0.87948,0 -1.28109,0.64625 -0.39653,0.64626 -0.47278,2.0795 z m 8.18917,1.82933 v -0.9746 q 0,-3.25214 1.14383,-4.85215 1.14383,-1.60002 3.20271,-1.60002 v 0 q 1.75387,0 2.70452,1.4176 v 0 l 0.13218,-1.17264 h 3.04004 v 13.21703 q 0,2.5277 -1.38276,3.86712 -1.38276,1.33422 -3.97036,1.33422 v 0 q -1.0574,0 -2.22665,-0.43258 -1.16924,-0.43258 -1.73862,-1.10489 v 0 l 1.13366,-2.3922 q 0.47279,0.51075 1.23534,0.83388 0.76255,0.32313 1.44376,0.32313 v 0 q 1.13366,0 1.62678,-0.55245 0.49312,-0.55766 0.50328,-1.79285 v 0 -1.13616 q -0.96081,1.29773 -2.51133,1.29773 v 0 q -2.06398,0 -3.18747,-1.64171 -1.12858,-1.64691 -1.14891,-4.63846 z m 3.37048,-0.9746 v 0.86515 q 0,1.83454 0.46261,2.66842 0.4677,0.8391 1.47935,0.8391 v 0 q 1.03707,0 1.53527,-0.77135 v 0 -6.31665 q -0.52361,-0.8391 -1.50985,-0.8391 v 0 q -1.00148,0 -1.48443,0.8391 -0.48295,0.8443 -0.48295,2.71533 z m 18.82518,7.00982 h -3.3959 q -0.14235,-0.3075 -0.28469,-1.02672 v 0 q -0.90489,1.27167 -2.45541,1.27167 v 0 q -1.6217,0 -2.68419,-1.09968 -1.06757,-1.09968 -1.06757,-2.84562 v 0 q 0,-2.0795 1.29125,-3.21566 1.29126,-1.13617 3.72126,-1.15701 v 0 h 1.0269 v -1.0632 q 0,-0.89121 -0.29994,-1.26125 -0.29485,-0.36482 -0.86931,-0.36482 v 0 q -1.26075,0 -1.26075,1.51662 v 0 h -3.37048 q 0,-1.83454 1.33701,-3.02282 1.34209,-1.1935 3.39081,-1.1935 v 0 q 2.1199,0 3.28406,1.13096 1.15908,1.13095 1.15908,3.23129 v 0 6.21763 q 0.0254,1.70946 0.47787,2.67364 v 0 z m -5.38362,-2.46517 v 0 q 0.5592,0 0.95065,-0.23453 0.39652,-0.23453 0.58462,-0.54723 v 0 -2.75181 h -0.8083 q -0.85915,0 -1.35226,0.56287 -0.4982,0.56287 -0.4982,1.50099 v 0 q 0,1.46971 1.12349,1.46971 z m 13.74817,-10.83525 -0.0356,3.41892 -1.11841,-0.099 q -1.38276,0 -1.8708,1.24561 v 0 8.73492 h -3.38573 v -13.21703 h 3.18239 l 0.0966,1.42802 q 0.79813,-1.67298 2.20123,-1.67298 v 0 q 0.57445,0 0.93031,0.16157 z m 10.85413,13.30042 h -3.39589 q -0.14235,-0.3075 -0.28469,-1.02672 v 0 q -0.90489,1.27167 -2.45542,1.27167 v 0 q -1.62169,0 -2.68418,-1.09968 -1.06757,-1.09968 -1.06757,-2.84562 v 0 q 0,-2.0795 1.29125,-3.21566 1.29126,-1.13617 3.72126,-1.15701 v 0 h 1.0269 v -1.0632 q 0,-0.89121 -0.29994,-1.26125 -0.29485,-0.36482 -0.86931,-0.36482 v 0 q -1.26075,0 -1.26075,1.51662 v 0 h -3.37048 q 0,-1.83454 1.33701,-3.02282 1.34209,-1.1935 3.39081,-1.1935 v 0 q 2.1199,0 3.28406,1.13096 1.15908,1.13095 1.15908,3.23129 v 0 6.21763 q 0.0254,1.70946 0.47786,2.67364 v 0 z m -5.38361,-2.46517 v 0 q 0.5592,0 0.95065,-0.23453 0.39652,-0.23453 0.58462,-0.54723 v 0 -2.75181 h -0.80831 q -0.85914,0 -1.35225,0.56287 -0.4982,0.56287 -0.4982,1.50099 v 0 q 0,1.46971 1.12349,1.46971 z m 20.47006,-2.19936 v 0 q 0,-1.08926 -0.54395,-1.64692 -0.54395,-0.55244 -1.97247,-1.1518 v 0 q -2.60792,-1.01629 -3.75175,-2.37656 -1.14383,-1.36027 -1.14383,-3.21566 v 0 q 0,-2.25148 1.55561,-3.61175 1.5556,-1.36027 3.95002,-1.36027 v 0 q 1.59627,0 2.84686,0.68795 1.25058,0.68796 1.92163,1.9492 0.67612,1.25604 0.67612,2.85605 v 0 h -3.49248 q 0,-1.24561 -0.51854,-1.89708 -0.51853,-0.65668 -1.4946,-0.65668 v 0 q -0.92014,0 -1.42851,0.55765 -0.51345,0.55766 -0.51345,1.49578 v 0 q 0,0.73486 0.56937,1.329 0.57445,0.58893 2.02839,1.22476 v 0 q 2.53675,0.94333 3.68566,2.30881 1.14891,1.3707 1.14891,3.48146 v 0 q 0,2.31923 -1.43868,3.62739 -1.44376,1.30815 -3.91951,1.30815 v 0 q -1.6827,0 -3.06546,-0.7088 -1.38276,-0.7088 -2.16056,-2.02738 -0.78289,-1.31857 -0.78289,-3.11663 v 0 h 3.5179 q 0,1.54268 0.58463,2.23585 0.58462,0.69837 1.90638,0.69837 v 0 q 1.8352,0 1.8352,-1.99089 z m 17.08212,-13.12322 v 2.99677 h -4.28554 v 14.79098 h -3.51791 v -14.79098 h -4.21437 v -2.99677 z m 9.79625,17.78775 -0.93031,-3.63781 h -4.77866 l -0.93032,3.63781 h -3.70091 l 5.4192,-17.78775 h 3.20271 l 5.45988,17.78775 z m -3.32473,-12.97208 -1.62169,6.3375 h 3.24339 z m 20.81465,-4.81567 v 17.78775 h -3.50266 l -5.12435,-11.66393 v 11.66393 h -3.50265 v -17.78775 h 3.50265 l 5.13452,11.67956 v -11.67956 z" id="path9" style="stroke-width:0.514732" /></svg>